<svg viewBox="54 54 916 916" xmlns="http://www.w3.org/2000/svg"><defs><clipPath id="a"><polygon points="512,76 948,512 512,948 76,512"/></clipPath><linearGradient id="b" x1="390" y1="90" x2="655" y2="420" gradientUnits="userSpaceOnUse"><stop offset="0" stop-color="#1478ff"/><stop offset="1" stop-color="#005be0"/></linearGradient><linearGradient id="c" x1="130" y1="340" x2="470" y2="630" gradientUnits="userSpaceOnUse"><stop offset="0" stop-color="#ff2b3f"/><stop offset="1" stop-color="#f2001d"/></linearGradient><linearGradient id="d" x1="650" y1="320" x2="900" y2="620" gradientUnits="userSpaceOnUse"><stop offset="0" stop-color="#79ea16"/><stop offset="1" stop-color="#56ca00"/></linearGradient><linearGradient id="e" x1="105" y1="560" x2="385" y2="815" gradientUnits="userSpaceOnUse"><stop offset="0" stop-color="#b429ff"/><stop offset="1" stop-color="#7d00d8"/></linearGradient><linearGradient id="f" x1="515" y1="555" x2="515" y2="935" gradientUnits="userSpaceOnUse"><stop offset="0" stop-color="#ffe523"/><stop offset="1" stop-color="#f0cb00"/></linearGradient><linearGradient id="g" x1="865" y1="555" x2="650" y2="835" gradientUnits="userSpaceOnUse"><stop offset="0" stop-color="#30ebff"/><stop offset="1" stop-color="#00c6da"/></linearGradient></defs><g clip-path="url(#a)"><polygon fill="url(#b)" points="512,76 692,256 518,434 340,248"/><polygon fill="url(#c)" points="76,512 340,248 518,434 524,526 388,620"/><polygon fill="url(#d)" points="692,256 948,512 644,612 524,526 518,434"/><polygon fill="url(#e)" points="76,512 388,620 370,806"/><polygon fill="url(#f)" points="388,620 524,526 644,612 654,806 512,948 370,806"/><polygon fill="url(#g)" points="644,612 948,512 654,806"/></g><g fill="none" stroke="#0a0f18" stroke-width="20" stroke-linecap="round" stroke-linejoin="round"><line x1="340" y1="248" x2="518" y2="434"/><line x1="518" y1="434" x2="692" y2="256"/><line x1="518" y1="434" x2="524" y2="526"/><line x1="524" y1="526" x2="388" y2="620"/><line x1="524" y1="526" x2="644" y2="612"/><line x1="76" y1="512" x2="388" y2="620"/><line x1="644" y1="612" x2="948" y2="512"/><line x1="388" y1="620" x2="370" y2="806"/><line x1="644" y1="612" x2="654" y2="806"/></g><polygon points="512,76 948,512 512,948 76,512" fill="none" stroke="#0a0f18" stroke-width="34" stroke-linecap="round" stroke-linejoin="round"/></svg>